<?xml version="1.0" standalone="no"?>
<!DOCTYPE svg PUBLIC "-//W3C//DTD SVG 20010904//EN"
 "http://www.w3.org/TR/2001/REC-SVG-20010904/DTD/svg10.dtd">
<svg version="1.0" xmlns="http://www.w3.org/2000/svg"
 width="164.000000pt" height="168.000000pt" viewBox="0 0 164.000000 168.000000"
 preserveAspectRatio="xMidYMid meet">

<g transform="translate(0.000000,168.000000) scale(0.100000,-0.100000)"
fill="#000000" stroke="none">
<path d="M760 1633 c-342 -37 -616 -268 -706 -594 -25 -89 -25 -308 0 -399 59
-217 211 -408 407 -510 126 -66 211 -85 374 -84 130 0 146 3 234 32 136 47
222 101 321 201 120 122 183 237 217 394 19 93 13 307 -12 387 -101 325 -386
552 -720 572 -44 3 -96 4 -115 1z m372 -670 c22 -20 24 -81 4 -109 -14 -18
-31 -19 -300 -22 -305 -3 -319 -1 -337 45 -11 29 4 88 24 97 7 2 142 5 301 5
256 1 292 -1 308 -16z m-834 -120 l76 -56 -50 -43 c-49 -44 -49 -44 -64 -22
-8 12 -27 51 -43 86 -21 50 -25 68 -16 78 6 8 14 14 17 14 3 0 39 -25 80 -57z
m1142 -224 c-43 -34 -67 -42 -30 -9 19 16 39 30 45 30 5 0 -1 -9 -15 -21z
m-723 -73 c-4 -10 -1 -13 9 -9 8 3 14 -1 14 -11 0 -9 8 -16 18 -16 14 0 15 -2
2 -10 -13 -8 -12 -10 3 -10 9 0 17 -5 17 -11 0 -5 -4 -7 -10 -4 -6 3 -7 -1 -4
-9 3 -9 10 -16 16 -16 5 0 6 -6 2 -12 -5 -10 -4 -10 6 -1 7 6 20 9 29 6 14 -4
14 -3 1 6 -13 9 -13 11 0 11 8 0 33 19 57 42 41 40 73 56 73 37 0 -6 6 -7 13
-3 6 4 4 -2 -7 -14 -10 -12 -23 -19 -29 -15 -5 3 -7 1 -4 -4 9 -14 -19 -37
-32 -28 -6 3 -8 0 -5 -9 4 -11 0 -13 -14 -9 -11 2 -23 0 -26 -6 -5 -7 -1 -8 9
-5 11 5 14 2 9 -10 -4 -10 -13 -15 -21 -12 -8 3 -11 2 -8 -4 3 -5 -2 -15 -11
-22 -8 -7 -39 -37 -66 -66 -37 -38 -56 -51 -70 -46 -11 3 -18 0 -18 -7 0 -7
-3 -9 -7 -6 -3 4 -12 2 -20 -4 -10 -9 -13 -8 -13 1 0 6 9 14 20 17 11 3 20 10
20 15 0 6 6 8 13 5 8 -3 14 1 14 9 0 7 -5 10 -11 7 -6 -4 -5 1 3 10 7 9 18 14
25 10 6 -3 8 -2 3 2 -9 11 21 45 40 45 8 0 11 5 7 12 -5 8 0 9 16 5 21 -5 20
-3 -9 27 -17 18 -28 36 -24 41 5 4 3 5 -3 2 -6 -3 -26 10 -45 30 -19 20 -29
33 -23 30 7 -4 17 0 24 8 16 19 24 19 17 1z m83 -82 c0 -8 -5 -12 -10 -9 -6 4
-8 11 -5 16 9 14 15 11 15 -7z m300 -55 c13 -23 -5 -62 -45 -99 l-27 -25 -34
39 c-31 36 -44 82 -28 98 3 3 32 6 65 6 48 0 61 -4 69 -19z m-418 -151 c-7 -7
-12 -8 -12 -2 0 14 12 26 19 19 2 -3 -1 -11 -7 -17z m-40 -29 c-26 -23 -38
-24 -46 -3 -5 14 -4 15 8 5 13 -11 15 -9 11 10 -4 17 -2 20 7 11 17 -17 28
-15 29 6 0 11 2 13 6 4 3 -8 -4 -22 -15 -33z"/>
<path d="M583 940 c-32 -13 -29 -21 6 -14 25 5 29 3 34 -24 10 -50 60 -54 91
-7 16 24 15 25 -13 40 -33 17 -84 19 -118 5z m117 -25 c0 -8 -4 -15 -9 -15
-13 0 -22 16 -14 24 11 11 23 6 23 -9z"/>
<path d="M947 934 c-23 -12 -26 -18 -17 -34 26 -49 84 -48 95 1 6 28 10 31 39
25 l31 -6 -25 15 c-32 19 -88 18 -123 -1z m23 -19 c0 -8 -4 -15 -9 -15 -13 0
-22 16 -14 24 11 11 23 6 23 -9z"/>
<path d="M897 512 c-15 -16 -15 -19 -2 -19 8 0 13 3 10 5 -3 3 0 11 6 19 17
20 5 16 -14 -5z"/>
<path d="M735 370 c-3 -5 -1 -10 4 -10 6 0 11 5 11 10 0 6 -2 10 -4 10 -3 0
-8 -4 -11 -10z"/>
<path d="M735 340 c-3 -5 -1 -10 4 -10 6 0 11 5 11 10 0 6 -2 10 -4 10 -3 0
-8 -4 -11 -10z"/>
</g>
</svg>
